# xmcd CD database file
#
# Track frame offsets:
#	150
#	19210
#	46995
#	66005
#
# Disc length: 1248 seconds
#
# Revision: 1
# Processed by: cddbd v1.5.2PL0 Copyright (c) Steve Scherf et al.
# Submitted via: CDex 1.70beta2
#
DISCID=2d04de04
DTITLE=ファンタズム (FES cv.榊原ゆい) - プレギエーラの月夜に
DYEAR=2011
DGENRE=Game
TTITLE0=プレギエーラの月夜に
TTITLE1=EUPHORIA ～償いのレクイエム～
TTITLE2=プレギエーラの月夜に (off Vocal)
TTITLE3=EUPHORIA ～償いのレクイエム～ (off Vocal)
EXTD=YEAR: 2011
EXTT0=
EXTT1=
EXTT2=
EXTT3=
PLAYORDER=
